<svg id="Layer_1" style="enable-background:new 0 0 1608.11 742.67;" version="1.1" viewBox="0 0 1608.11 742.67" x="0px" xml:space="preserve" xmlns="http://www.w3.org/2000/svg" xmlns:xlink="http://www.w3.org/1999/xlink" y="0px">
<style type="text/css">
	.st0{fill:#00609C;}
	.st1{fill:#FFFFFF;}
</style>
<g>
<g>
<path class="st0" d="M131.06,622.65l1342.5-0.14c52.66-0.01,95.33-42.7,95.33-95.35V136.98H131.06V622.65z"></path>
<path class="st1" d="M125.05,628.66V130.98H1574.9v396.18c0,55.88-45.46,101.35-101.34,101.36L125.05,628.66z M137.07,142.99
			v473.66l1336.5-0.14c49.25-0.01,89.32-40.09,89.32-89.35V142.99H137.07z"></path>
</g>
<g>
<path class="st1" d="M893.18,406.5l-29.46-93.02l-28.85,93.02H893.18z M891.59,282.78l66.55,196.66h-41.83l-13.31-40.75h-78.28
			l-13.63,40.75h-41.84l61.47-181.64c3.04-8.98,11.46-15.02,20.94-15.02H891.59z"></path>
</g>
<g>
<path class="st1" d="M1081.49,429.54c0,14.46-7.61,19.19-25.68,19.19h-40.89V395h44.37c15.86,0,22.19,6.49,22.19,19.78V429.54z
			 M1014.93,313.49h38.35c14.59,0,20.93,5.02,20.93,15.95v17.41c0,11.52-5.71,18.31-21.25,18.31h-38.03V313.49z M1090.67,376.98
			c16.17-6.49,23.46-15.65,23.46-31.89v-20.37c0-26.58-16.17-41.94-56.1-41.94H975v196.66h88.75c38.34,0,57.68-17.42,57.68-45.17
			V413.3C1121.42,394.11,1110.02,380.81,1090.67,376.98"></path>
</g>
<g>
<path class="st1" d="M696.54,310.46h57.38V296.2c0-10.77-8.73-19.49-19.49-19.49h-37.89c-51.28,0.49-73.31,21.35-73.31,56.95
			v88.58c0,35.61,22.03,56.46,73.31,56.95v0.14h55.2v-14.3c0-10.75-8.71-19.45-19.45-19.45h-35.75v-0.14
			c-25.03-0.69-33.38-9.57-33.38-29.69v-75.59C663.16,320.03,671.51,311.16,696.54,310.46"></path>
</g>
<g>
<path class="st1" d="M1373.22,446.67V313.63v-33.76h-17.82c-12.21,0-22.11,9.9-22.11,22.11v11.65v165.82h126.76v-32.78H1373.22z"></path>
</g>
<g>
<path class="st1" d="M1254.18,406.5l-29.46-93.02l-28.85,93.02H1254.18z M1252.6,282.78l66.55,196.66h-41.83l-13.31-40.75h-78.28
			l-13.64,40.75h-41.83l59.59-176.1c4.16-12.29,15.7-20.57,28.67-20.57H1252.6z"></path>
</g>
<g>
<path class="st1" d="M406.23,222.05l145.85,143.23c8.14,7.99,8.14,21.11,0,29.11l-145.8,143.2l0.02-80.06l68.47-67.57
			c5.65-5.58,5.65-14.69,0.01-20.26l-68.55-67.8V222.05z"></path>
</g>
<g>
<path class="st1" d="M379.32,222.05L233.48,365.28c-8.14,7.99-8.14,21.11,0,29.11l145.79,143.2l-0.02-80.06l-68.46-67.57
			c-5.65-5.58-5.65-14.69-0.01-20.26l68.55-67.8V222.05z"></path>
</g>
</g>
</svg>