<svg version="1.1" id="Capa_1" xmlns="http://www.w3.org/2000/svg" xmlns:xlink="http://www.w3.org/1999/xlink" x="0px" y="0px" viewBox="0 0 125.6 35" style="enable-background:new 0 0 125.6 35;" xml:space="preserve">
 <style type="text/css">
  .st0{fill:#FFFFFF;}
	.st1{fill:#FA6400;}
 </style>
 <g>
  <rect class="st0" width="125.6" height="35">
  </rect>
  <path class="st1" d="M17.54,1.97l-15.57,0v31.1l15.57,0c8.62,0.02,15.61-6.95,15.61-15.54C33.15,8.93,26.16,1.97,17.54,1.97z
		 M22.72,12.56c-0.03,0-0.05-0.01-0.07-0.02c-0.06-0.04-0.34-0.19-0.89-0.36c-0.68-0.21-1.87-0.46-3.68-0.51
		c0.1,1.94,0.45,3.07,0.64,3.56l0.03,0.06c0.11,0.27,0.44,0.91,0.94,1.05c0.04,0.01,0.07,0.04,0.08,0.08c0.01,0.02,0.01,0.04,0,0.06
		l-2.14,14.59c-0.01,0.06-0.06,0.11-0.12,0.11c-0.06,0-0.11-0.05-0.12-0.1L15.24,16.5c-0.01-0.02-0.01-0.05,0-0.07
		c0.01-0.04,0.04-0.07,0.08-0.08c0.5-0.15,0.82-0.78,0.93-1.05c0.21-0.5,0.57-1.64,0.67-3.63c-1.82,0.05-3,0.3-3.68,0.51
		c-0.62,0.19-0.89,0.36-0.89,0.36c-0.01,0.01-0.03,0.01-0.04,0.02c-0.01,0-0.02,0-0.03,0c-0.8,0-1.44-0.65-1.44-1.45
		c0-0.8,0.65-1.45,1.44-1.45c0.01,0,0.02,0,0.02,0c0.02,0,0.03,0.01,0.05,0.02c0,0,0.27,0.17,0.89,0.36
		c0.68,0.21,1.88,0.46,3.71,0.51c-0.05-1.82-0.3-3-0.51-3.68C16.27,6.32,16.11,6.06,16.08,6c-0.02-0.03-0.02-0.06-0.01-0.09
		c0.01-0.37,0.16-0.72,0.42-0.99c0.27-0.27,0.63-0.42,1.02-0.42c0.22,0,0.43,0.05,0.65,0.14c0.48,0.21,0.78,0.71,0.79,1.28
		c0,0.03,0,0.06-0.02,0.09c-0.01,0.01-0.17,0.27-0.35,0.87c-0.21,0.68-0.46,1.86-0.51,3.68c1.83-0.04,3.02-0.3,3.7-0.5
		c0.56-0.17,0.83-0.33,0.89-0.36c0.02-0.02,0.05-0.03,0.08-0.03c0.8,0,1.44,0.65,1.44,1.45C24.17,11.91,23.52,12.56,22.72,12.56z">
  </path>
  <path class="st1" d="M123.55,1.97H27.95c4.41,3.22,7.31,8.41,7.38,14.29c0.09,7.59-4.55,14.14-11.19,16.83h99.4V1.97z">
  </path>
  <g>
   <g>
    <path class="st0" d="M56.97,25.77c-0.62,0.24-1.28,0.46-1.97,0.66c-0.58,0.16-1.25,0.32-2,0.45c-0.75,0.14-1.51,0.21-2.28,0.21
				c-1.24,0-2.41-0.22-3.49-0.67c-1.09-0.45-2.03-1.09-2.84-1.93c-0.8-0.84-1.43-1.86-1.89-3.04c-0.46-1.19-0.69-2.52-0.69-4
				c0-1.48,0.26-2.82,0.77-4c0.51-1.19,1.21-2.2,2.08-3.04c0.88-0.84,1.9-1.49,3.06-1.93C48.88,8,50.1,7.78,51.4,7.78
				c0.77,0,1.46,0.05,2.07,0.14c0.61,0.09,1.14,0.18,1.58,0.27c0.51,0.11,0.98,0.24,1.4,0.38l-0.9,2.58
				c-0.31-0.05-0.64-0.12-0.99-0.19c-0.31-0.05-0.67-0.1-1.08-0.15c-0.41-0.05-0.86-0.07-1.36-0.07c-0.93,0-1.8,0.16-2.62,0.48
				c-0.81,0.32-1.52,0.77-2.12,1.36c-0.6,0.59-1.07,1.29-1.41,2.13c-0.34,0.83-0.51,1.76-0.51,2.78c0,0.97,0.15,1.86,0.44,2.66
				c0.29,0.8,0.7,1.49,1.22,2.07c0.52,0.58,1.15,1.03,1.87,1.36c0.72,0.33,1.52,0.49,2.38,0.49c0.35,0,0.66-0.01,0.95-0.03
				c0.28-0.02,0.53-0.05,0.73-0.08c0.24-0.04,0.45-0.07,0.63-0.11V19.5h-3.3v-2.78h6.59V25.77z">
    </path>
    <path class="st0" d="M67.35,26.75l-0.25-1.59h-0.05c-0.13,0.13-0.31,0.3-0.53,0.51c-0.23,0.21-0.5,0.42-0.82,0.63
				c-0.32,0.21-0.69,0.39-1.11,0.55c-0.42,0.16-0.89,0.23-1.4,0.23c-0.46,0-0.91-0.09-1.37-0.27c-0.46-0.18-0.87-0.45-1.23-0.8
				c-0.37-0.35-0.66-0.78-0.89-1.29c-0.23-0.51-0.34-1.09-0.34-1.73c0-1.01,0.26-1.8,0.79-2.39c0.53-0.58,1.18-1.03,1.96-1.33
				c0.78-0.3,1.61-0.5,2.51-0.59c0.9-0.09,1.72-0.14,2.47-0.14v-0.25c0-0.89-0.17-1.55-0.51-1.99c-0.34-0.44-0.94-0.66-1.8-0.66
				c-0.44,0-0.87,0.05-1.3,0.15c-0.43,0.1-0.82,0.21-1.17,0.32c-0.4,0.13-0.79,0.27-1.18,0.44l-0.74-1.96
				c0.51-0.25,1.06-0.48,1.64-0.68c0.47-0.18,1.02-0.34,1.63-0.49c0.61-0.14,1.22-0.22,1.82-0.22c1.52,0,2.68,0.42,3.49,1.25
				c0.81,0.83,1.22,2,1.22,3.5v8.8H67.35z M67.08,20.58c-0.44,0-0.93,0.03-1.47,0.08c-0.54,0.05-1.05,0.16-1.53,0.32
				c-0.48,0.16-0.89,0.38-1.21,0.69c-0.32,0.3-0.48,0.7-0.48,1.19c0,0.55,0.18,0.97,0.55,1.26c0.37,0.29,0.77,0.44,1.21,0.44
				c0.38,0,0.75-0.07,1.11-0.22c0.36-0.15,0.67-0.31,0.95-0.49c0.33-0.2,0.62-0.44,0.88-0.71V20.58z">
    </path>
    <path class="st0" d="M73.49,26.75V6.57h3.29v20.18H73.49z">
    </path>
    <path class="st0" d="M83.8,8.82c0,0.53-0.18,0.98-0.53,1.34c-0.36,0.37-0.8,0.55-1.33,0.55s-0.97-0.18-1.32-0.55
				C80.27,9.8,80.1,9.35,80.1,8.82c0-0.53,0.17-0.98,0.52-1.34c0.35-0.37,0.79-0.55,1.32-0.55s0.97,0.18,1.33,0.55
				C83.62,7.84,83.8,8.29,83.8,8.82z M80.29,26.75V13.54h3.29v13.22H80.29z">
    </path>
    <path class="st0" d="M97.01,25.46c-0.48,0.31-0.99,0.59-1.54,0.82c-0.48,0.2-1.02,0.38-1.64,0.55c-0.62,0.16-1.27,0.25-1.95,0.25
				c-0.77,0-1.49-0.16-2.18-0.47c-0.69-0.31-1.28-0.74-1.8-1.3c-0.51-0.56-0.92-1.23-1.22-2.02c-0.3-0.79-0.45-1.66-0.45-2.63
				c0-1.01,0.16-1.96,0.49-2.85c0.33-0.9,0.79-1.69,1.38-2.37c0.59-0.69,1.31-1.23,2.14-1.63c0.83-0.4,1.75-0.6,2.75-0.6
				c0.47,0,0.92,0.04,1.34,0.12c0.42,0.08,0.8,0.17,1.15,0.26c0.38,0.11,0.76,0.23,1.12,0.36l-0.85,2.22l-0.55-0.14
				c-0.16-0.04-0.36-0.07-0.59-0.11c-0.23-0.04-0.48-0.05-0.75-0.05c-0.6,0-1.16,0.11-1.67,0.34c-0.51,0.23-0.95,0.55-1.32,0.96
				c-0.37,0.41-0.65,0.9-0.86,1.45c-0.21,0.56-0.32,1.17-0.32,1.82c0,1.17,0.32,2.11,0.96,2.82c0.64,0.71,1.48,1.07,2.52,1.07
				c0.37,0,0.73-0.03,1.08-0.08c0.36-0.05,0.67-0.12,0.95-0.19c0.33-0.07,0.62-0.17,0.88-0.3L97.01,25.46z">
    </path>
    <path class="st0" d="M102.63,8.82c0,0.53-0.18,0.98-0.53,1.34c-0.36,0.37-0.8,0.55-1.33,0.55s-0.97-0.18-1.32-0.55
				c-0.35-0.37-0.52-0.81-0.52-1.34c0-0.53,0.17-0.98,0.52-1.34c0.35-0.37,0.79-0.55,1.32-0.55s0.97,0.18,1.33,0.55
				C102.45,7.84,102.63,8.29,102.63,8.82z M99.12,26.75V13.54h3.29v13.22H99.12z">
    </path>
    <path class="st0" d="M112.97,26.75l-0.25-1.59h-0.05c-0.13,0.13-0.31,0.3-0.53,0.51c-0.23,0.21-0.5,0.42-0.82,0.63
				c-0.32,0.21-0.69,0.39-1.11,0.55c-0.42,0.16-0.89,0.23-1.4,0.23c-0.46,0-0.91-0.09-1.37-0.27c-0.46-0.18-0.87-0.45-1.23-0.8
				c-0.37-0.35-0.66-0.78-0.89-1.29c-0.23-0.51-0.34-1.09-0.34-1.73c0-1.01,0.26-1.8,0.79-2.39c0.53-0.58,1.18-1.03,1.96-1.33
				c0.78-0.3,1.61-0.5,2.51-0.59c0.9-0.09,1.72-0.14,2.47-0.14v-0.25c0-0.89-0.17-1.55-0.51-1.99c-0.34-0.44-0.94-0.66-1.8-0.66
				c-0.44,0-0.87,0.05-1.3,0.15c-0.43,0.1-0.82,0.21-1.17,0.32c-0.4,0.13-0.79,0.27-1.18,0.44L106,14.59
				c0.51-0.25,1.06-0.48,1.64-0.68c0.47-0.18,1.02-0.34,1.63-0.49c0.61-0.14,1.22-0.22,1.82-0.22c1.52,0,2.68,0.42,3.49,1.25
				c0.81,0.83,1.22,2,1.22,3.5v8.8H112.97z M112.69,20.58c-0.44,0-0.93,0.03-1.47,0.08c-0.54,0.05-1.05,0.16-1.53,0.32
				c-0.48,0.16-0.89,0.38-1.21,0.69c-0.32,0.3-0.48,0.7-0.48,1.19c0,0.55,0.18,0.97,0.55,1.26c0.37,0.29,0.77,0.44,1.21,0.44
				c0.38,0,0.75-0.07,1.11-0.22c0.36-0.15,0.67-0.31,0.95-0.49c0.33-0.2,0.62-0.44,0.88-0.71V20.58z">
    </path>
   </g>
  </g>
 </g>
</svg>