<?xml version="1.0" encoding="UTF-8" standalone="no"?>


<svg
   xmlns:dc="http://purl.org/dc/elements/1.1/"
   xmlns:cc="http://creativecommons.org/ns#"
   xmlns:rdf="http://www.w3.org/1999/02/22-rdf-syntax-ns#"
   xmlns:svg="http://www.w3.org/2000/svg"
   xmlns="http://www.w3.org/2000/svg"
   xmlns:sodipodi="http://sodipodi.sourceforge.net/DTD/sodipodi-0.dtd"
   xmlns:inkscape="http://www.inkscape.org/namespaces/inkscape"
   version="1.1"
   id="svg1036"
   xml:space="preserve"
   width="113.38667"
   height="19.453333"
   viewBox="0 0 113.38667 19.453333"
   sodipodi:docname="banco-provincia.svg"
   inkscape:version="0.92.3 (2405546, 2018-03-11)"><metadata
     id="metadata1042"><rdf:RDF><cc:Work
         rdf:about=""><dc:format>image/svg+xml</dc:format><dc:type
           rdf:resource="http://purl.org/dc/dcmitype/StillImage" /><dc:title></dc:title></cc:Work></rdf:RDF></metadata><defs
     id="defs1040" /><sodipodi:namedview
     pagecolor="#ffffff"
     bordercolor="#666666"
     borderopacity="1"
     objecttolerance="10"
     gridtolerance="10"
     guidetolerance="10"
     inkscape:pageopacity="0"
     inkscape:pageshadow="2"
     inkscape:window-width="1280"
     inkscape:window-height="663"
     id="namedview1038"
     showgrid="false"
     inkscape:zoom="6.3234945"
     inkscape:cx="56.693336"
     inkscape:cy="9.7266665"
     inkscape:window-x="0"
     inkscape:window-y="0"
     inkscape:window-maximized="1"
     inkscape:current-layer="g1044" /><g
     id="g1044"
     inkscape:groupmode="layer"
     inkscape:label="ink_ext_XXXXXX"
     transform="matrix(1.3333333,0,0,-1.3333333,0,19.453333)"><g
       id="g1046"
       transform="scale(0.1)"><path
         d="m 77.6367,86.2031 c 8.5274,0 15.4414,6.9727 15.4414,15.5079 0,8.523 -6.914,15.43 -15.4414,15.43 h -5.6133 c -1.5546,0 -3.4296,-1.348 -3.4296,-3.438 v -24.16 c 0,-1.5508 1.4257,-3.3399 3.6054,-3.3399 h 5.4375"
         style="fill:#9ac00f;fill-opacity:1;fill-rule:nonzero;stroke:none"
         id="path1048"
         inkscape:connector-curvature="0" /><path
         d="m 123.469,88.9063 c -0.137,0.0507 -0.403,0.0898 -0.598,-0.3907 C 109.121,55.168 71.0938,60.4297 71.0938,60.4297 69.543,60.5195 68.4102,59.875 68.332,58.4102 V 33.3438 c 0.0196,-1.6016 -1.0078,-1.9454 -2.0117,-2.0821 -24.4258,-0.8476 -30.7031,15.4688 -30.8125,26.7305 -0.0195,3.0742 -0.164,5.2812 -0.164,5.6523 v 64.9105 c 0,1.515 1.1523,2.07 2.1484,2.07 h 13.1055 c 3.7695,-0.016 4.7148,0.363 6.8632,2.383 l 10.6446,11.547 c 1.1718,1.445 -0.7422,1.336 -0.7422,1.336 H 9.44531 C 1.64063,145.891 0,140.383 0,137.133 V 58.3711 C 0.0898438,50.0313 -0.351563,0 57.2266,0 h 54.7654 c 8.801,0 11.778,5.91016 11.778,10.8906 v 77.375 c 0,0 0.019,0.5352 -0.301,0.6407"
         style="fill:#9ac00f;fill-opacity:1;fill-rule:nonzero;stroke:none"
         id="path1050"
         inkscape:connector-curvature="0" /><path
         d="m 177.617,49.4375 h 11.973 c 6.484,0 10.051,3.4453 10.051,9.2734 0,5.5079 -3.567,9.0743 -10.051,9.0743 h -11.973 c -0.437,0 -0.652,-0.2227 -0.652,-0.6524 V 50.0703 c 0,-0.4297 0.215,-0.6328 0.652,-0.6328 m 11.113,30.5352 c 6.047,0 9.719,3.1445 9.719,8.6445 0,5.5078 -3.566,8.5234 -9.719,8.5234 h -11.113 c -0.437,0 -0.652,-0.2148 -0.652,-0.6445 V 80.6367 c 0,-0.4414 0.215,-0.664 0.652,-0.664 z M 161.094,102.98 c 0,4.208 2.59,7.012 6.914,7.012 h 22.765 c 15.997,0 23.438,-7.883 23.438,-19.5506 0,-7.8711 -3.566,-12.9414 -8.527,-15.6445 v -0.2031 c 4.855,-1.9454 9.816,-7.8907 9.816,-16.6407 0,-14.4648 -9.602,-21.3672 -25.469,-21.3672 h -22.023 c -4.324,0 -6.914,2.6954 -6.914,6.9024 V 102.98"
         style="fill:#4e5058;fill-opacity:1;fill-rule:nonzero;stroke:none"
         id="path1052"
         inkscape:connector-curvature="0" /><path
         d="m 253.398,53.957 v 3.5743 c 0,0.4218 -0.214,0.6445 -0.652,0.6445 h -7.336 c -6.367,0 -9.285,-1.9414 -9.285,-5.9375 0,-3.6719 2.586,-5.5078 7.559,-5.5078 6.367,0 9.714,2.3711 9.714,7.2265 m 18.137,-11.0039 c 0,-3.9961 -3.351,-7.0234 -7.558,-7.0234 -2.59,0 -4.758,0.9766 -6.153,2.9219 l -1.301,1.8359 h -0.105 c -2.695,-3.3516 -8.313,-5.2969 -14.785,-5.2969 -13.399,0 -19.875,6.0469 -19.875,15.9883 0,11.5508 8.644,16.8359 21.594,16.8359 h 9.394 c 0.438,0 0.652,0.2149 0.652,0.6446 v 0.539 c 0,4.8594 -3.457,7.7813 -10.683,7.7813 -3.25,0 -6.485,-0.7617 -8.426,-1.5234 -1.301,-0.4219 -2.492,-0.75 -3.566,-0.75 -3.563,0 -6.043,2.3828 -6.043,6.0429 0,2.2774 1.082,4.6367 3.886,6.043 3.446,1.7305 8.739,3.0195 15.977,3.0195 15.77,0 23.32,-7.9883 23.32,-21.0429 v -14.25 c 0,-2.4805 0.215,-3.6797 0.977,-4.9688 l 1.394,-2.3828 c 0.871,-1.3984 1.301,-2.9024 1.301,-4.4141"
         style="fill:#4e5058;fill-opacity:1;fill-rule:nonzero;stroke:none"
         id="path1054"
         inkscape:connector-curvature="0" /><path
         d="m 309.746,43.918 v 23.75 c 0,5.7226 -2.801,9.5117 -8.191,9.5117 -5.41,0 -8.106,-3.7891 -8.106,-9.5117 v -23.75 c 0,-4.961 -3.242,-7.9883 -7.57,-7.9883 -4.422,0 -7.547,3.0273 -7.547,7.9883 v 37.5781 c 0,4.9609 3.125,7.9805 7.547,7.9805 3.566,0 6.379,-2.043 7.238,-5.5 h 0.117 c 2.586,3.3398 7.118,6.0351 13.817,6.0351 11.543,0 17.812,-8.0976 17.812,-19.4258 V 43.918 c 0,-4.961 -3.133,-7.9883 -7.566,-7.9883 -4.309,0 -7.551,3.0273 -7.551,7.9883"
         style="fill:#4e5058;fill-opacity:1;fill-rule:nonzero;stroke:none"
         id="path1056"
         inkscape:connector-curvature="0" /><path
         d="m 334.465,50.2969 c -1.074,3.125 -1.719,6.9023 -1.719,12.3984 0,5.5195 0.645,9.2891 1.719,12.4141 3.133,9.7265 11.23,14.9023 22.246,14.9023 7.227,0 13.055,-2.3711 16.406,-5.7148 2.156,-2.1563 3.016,-3.8946 3.016,-6.043 0,-3.7695 -2.801,-6.4844 -6.582,-6.4844 -2.266,0 -3.992,1.1914 -6.153,3.1368 -1.726,1.6171 -3.671,2.3828 -6.472,2.3828 -4.004,0 -6.699,-1.836 -7.883,-5.7344 -0.652,-2.0508 -0.977,-4.5313 -0.977,-8.8594 0,-4.3047 0.325,-6.7851 0.977,-8.8359 1.184,-3.8985 3.879,-5.7344 7.883,-5.7344 2.801,0 4.746,0.7539 6.472,2.375 2.161,1.9531 3.887,3.1328 6.153,3.1328 3.781,0 6.582,-2.7031 6.582,-6.4726 0,-2.1602 -0.86,-3.8868 -3.016,-6.0547 -3.351,-3.3399 -9.179,-5.7149 -16.406,-5.7149 -11.016,0 -19.113,5.1875 -22.246,14.9063"
         style="fill:#4e5058;fill-opacity:1;fill-rule:nonzero;stroke:none"
         id="path1058"
         inkscape:connector-curvature="0" /><path
         d="m 414.035,53.957 c 0.75,2.2657 0.957,5.1836 0.957,8.75 0,3.5664 -0.207,6.4844 -0.957,8.75 -1.191,3.6524 -3.898,5.8321 -8.105,5.8321 -4.211,0 -6.907,-2.1797 -8.086,-5.8321 -0.762,-2.2656 -0.977,-5.1836 -0.977,-8.75 0,-3.5664 0.215,-6.4843 0.977,-8.75 1.179,-3.6601 3.875,-5.832 8.086,-5.832 4.207,0 6.914,2.1719 8.105,5.832 m -30.762,-3.5547 c -1.203,3.7774 -1.73,7.2383 -1.73,12.3047 0,5.0664 0.527,8.5274 1.73,12.3047 3.114,9.6094 11.219,15 22.657,15 11.453,0 19.55,-5.3906 22.675,-15 1.18,-3.7773 1.719,-7.2383 1.719,-12.3047 0,-5.0664 -0.539,-8.5273 -1.719,-12.3047 -3.125,-9.6093 -11.222,-15.0117 -22.675,-15.0117 -11.438,0 -19.543,5.4024 -22.657,15.0117"
         style="fill:#4e5058;fill-opacity:1;fill-rule:nonzero;stroke:none"
         id="path1060"
         inkscape:connector-curvature="0" /><path
         d="m 506.574,88.0586 c 0,7.9883 -5.293,12.9494 -14.367,12.9494 h -16.406 c -0.43,0 -0.645,-0.215 -0.645,-0.645 V 75.7344 c 0,-0.4219 0.215,-0.6446 0.645,-0.6446 h 16.406 c 9.074,0 14.367,4.9727 14.367,12.9688 m -41.027,17.5974 c 0,2.578 1.613,4.305 4.316,4.305 h 22.676 c 14.68,0 23.527,-8.856 23.527,-21.9024 0,-13.0742 -8.847,-21.9258 -23.527,-21.9258 h -16.738 c -0.43,0 -0.645,-0.2109 -0.645,-0.6523 V 41.1953 c 0,-3.2344 -1.941,-5.1797 -4.746,-5.1797 -2.918,0 -4.863,1.9453 -4.863,5.1797 v 64.4607"
         style="fill:#4e5058;fill-opacity:1;fill-rule:nonzero;stroke:none"
         id="path1062"
         inkscape:connector-curvature="0" /><path
         d="m 523.301,40.8711 v 43.0742 c 0,3.0195 1.945,4.8672 4.531,4.8672 2.598,0 4.531,-1.8477 4.531,-4.8672 v -2.3711 h 0.117 c 2.161,4.6485 6.907,7.8789 13.282,7.8789 3.566,0 5.937,-0.8593 7.656,-1.8359 1.836,-0.9844 2.598,-2.3711 2.598,-3.8828 0,-2.6016 -1.836,-4.5313 -4.539,-4.5313 -0.645,0 -1.504,0.211 -2.266,0.5352 -1.945,0.7617 -3.781,1.3008 -5.938,1.3008 -7.773,0 -10.91,-6.4766 -10.91,-15.1172 V 40.8711 c 0,-3.0195 -1.933,-4.8555 -4.531,-4.8555 -2.586,0 -4.531,1.836 -4.531,4.8555"
         style="fill:#4e5058;fill-opacity:1;fill-rule:nonzero;stroke:none"
         id="path1064"
         inkscape:connector-curvature="0" /><path
         d="m 593.262,51.875 c 0.859,2.8242 1.183,5.625 1.183,10.5859 0,4.9727 -0.324,7.668 -1.183,10.4688 -1.739,5.1875 -5.938,8.0976 -11.668,8.0976 -5.715,0 -9.922,-2.9101 -11.653,-8.0976 -0.867,-2.8008 -1.191,-5.4961 -1.191,-10.4688 0,-4.9609 0.324,-7.7617 1.191,-10.5859 1.731,-5.1836 5.938,-8.0859 11.653,-8.0859 5.73,0 9.929,2.9023 11.668,8.0859 m -32.071,-2.5859 c -1.179,3.5547 -1.726,7.1289 -1.726,13.1718 0,5.9375 0.547,9.4922 1.726,13.0704 2.813,8.8554 10.364,13.9218 20.403,13.9218 10.047,0 17.597,-5.0664 20.41,-13.9218 1.191,-3.5782 1.726,-7.1329 1.726,-13.0704 0,-6.0429 -0.535,-9.6171 -1.726,-13.1718 -2.813,-8.7422 -10.363,-13.9258 -20.41,-13.9258 -10.039,0 -17.59,5.1836 -20.403,13.9258"
         style="fill:#4e5058;fill-opacity:1;fill-rule:nonzero;stroke:none"
         id="path1066"
         inkscape:connector-curvature="0" /><path
         d="M 624.895,41.625 609.23,82.2188 c -0.312,0.8593 -0.429,1.5156 -0.429,2.2734 0,2.3672 1.726,4.3086 4.433,4.3086 2.157,0 3.555,-1.2891 4.317,-3.2305 L 630.93,49.6094 h 0.222 l 13.059,35.9609 c 0.75,1.9414 2.168,3.2305 4.324,3.2305 2.695,0 4.426,-1.9414 4.426,-4.3086 0,-0.7578 -0.109,-1.4141 -0.43,-2.2734 L 636.758,41.625 c -1.61,-4.2109 -3.016,-5.6094 -5.938,-5.6094 -2.91,0 -4.316,1.3985 -5.925,5.6094"
         style="fill:#4e5058;fill-opacity:1;fill-rule:nonzero;stroke:none"
         id="path1068"
         inkscape:connector-curvature="0" /><path
         d="m 661.367,83.957 c 0,3.0078 1.953,4.8438 4.543,4.8438 2.598,0 4.531,-1.836 4.531,-4.8438 V 40.8711 c 0,-3.0195 -1.933,-4.8438 -4.531,-4.8438 -2.59,0 -4.543,1.8243 -4.543,4.8438 z m -1.394,20.606 c 0,3.339 2.695,5.937 5.937,5.937 3.242,0 5.938,-2.598 5.938,-5.937 0,-3.223 -2.696,-5.9302 -5.938,-5.9302 -3.242,0 -5.937,2.7072 -5.937,5.9302"
         style="fill:#4e5058;fill-opacity:1;fill-rule:nonzero;stroke:none"
         id="path1070"
         inkscape:connector-curvature="0" /><path
         d="m 683.938,83.9453 c 0,3.0195 1.953,4.8555 4.531,4.8555 2.597,0 4.539,-1.836 4.539,-4.8555 v -1.5117 h 0.109 c 2.481,3.9961 7.449,7.0195 14.461,7.0195 11.223,0 17.922,-7.664 17.922,-19.4414 V 40.8711 c 0,-3.0195 -1.934,-4.8555 -4.531,-4.8555 -2.598,0 -4.531,1.836 -4.531,4.8555 v 26.9922 c 0,8.3008 -3.79,13.1758 -11.543,13.1758 -7.032,0 -11.887,-4.9727 -11.887,-12.6407 V 40.8711 c 0,-3.0195 -1.942,-4.8555 -4.539,-4.8555 -2.578,0 -4.531,1.836 -4.531,4.8555 v 43.0742"
         style="fill:#4e5058;fill-opacity:1;fill-rule:nonzero;stroke:none"
         id="path1072"
         inkscape:connector-curvature="0" /><path
         d="m 737.266,49.2891 c -0.977,3.125 -1.621,7.3437 -1.621,13.164 0,5.7227 0.644,9.9414 1.621,13.0782 2.91,8.9609 10.468,13.9218 20.402,13.9218 7.773,0 13.281,-3.3476 16.523,-7.5547 0.86,-1.1836 1.289,-2.1601 1.289,-3.3515 0,-2.2656 -1.73,-3.9844 -3.984,-3.9844 -1.633,0 -2.812,0.8594 -4.004,2.1484 -2.375,2.5977 -5.195,4.3164 -9.824,4.3164 -5.617,0 -9.824,-2.6953 -11.555,-8.0976 -0.859,-2.6953 -1.179,-5.9258 -1.179,-10.4766 0,-4.6289 0.32,-7.8711 1.179,-10.5781 1.731,-5.3906 5.938,-8.0859 11.555,-8.0859 4.629,0 7.449,1.7304 9.824,4.3203 1.192,1.289 2.371,2.1562 4.004,2.1562 2.254,0 3.984,-1.7265 3.984,-3.9922 0,-1.1836 -0.429,-2.1601 -1.289,-3.3515 -3.242,-4.211 -8.75,-7.5586 -16.523,-7.5586 -9.934,0 -17.492,4.9609 -20.402,13.9258"
         style="fill:#4e5058;fill-opacity:1;fill-rule:nonzero;stroke:none"
         id="path1074"
         inkscape:connector-curvature="0" /><path
         d="m 786.066,83.957 c 0,3.0078 1.934,4.8438 4.532,4.8438 2.586,0 4.531,-1.836 4.531,-4.8438 V 40.8711 c 0,-3.0195 -1.945,-4.8438 -4.531,-4.8438 -2.598,0 -4.532,1.8243 -4.532,4.8438 z m -1.418,20.606 c 0,3.339 2.707,5.937 5.95,5.937 3.23,0 5.937,-2.598 5.937,-5.937 0,-3.223 -2.707,-5.9302 -5.937,-5.9302 -3.243,0 -5.95,2.7072 -5.95,5.9302"
         style="fill:#4e5058;fill-opacity:1;fill-rule:nonzero;stroke:none"
         id="path1076"
         inkscape:connector-curvature="0" /><path
         d="m 838.098,53.2813 v 5.7343 c 0,0.4297 -0.215,0.6328 -0.645,0.6328 h -10.371 c -8.859,0 -12.852,-2.5781 -12.852,-8.414 0,-5.4024 3.887,-8.0977 10.809,-8.0977 7.981,0 13.059,3.7774 13.059,10.1446 m 12.304,-12.9454 c 0,-2.4843 -1.945,-4.3203 -4.648,-4.3203 -1.613,0 -2.91,0.7539 -3.984,2.2657 l -2.063,3.2343 h -0.105 c -3.457,-3.8867 -8.301,-6.1523 -15.872,-6.1523 -11.55,0 -18.25,5.7226 -18.25,15.5469 0,10.6836 7.352,15.9882 20.196,15.9882 h 11.777 c 0.43,0 0.645,0.2032 0.645,0.6329 v 2.4804 c 0,7.2383 -3.34,11.3477 -12.422,11.3477 -3.985,0 -8.098,-1.2969 -10.578,-2.5977 C 814.23,78.332 813.262,78 812.512,78 c -2.383,0 -3.899,1.5234 -3.899,3.8984 0,1.3946 0.657,2.8008 2.168,3.6719 3.235,2.1563 8.633,3.8828 15.754,3.8828 13.828,0 20.301,-6.5898 20.301,-19.3242 V 51.5625 c 0,-2.7031 0.215,-3.7773 0.969,-5.2891 l 1.836,-3.3437 c 0.429,-0.7578 0.761,-1.7344 0.761,-2.5938"
         style="fill:#4e5058;fill-opacity:1;fill-rule:nonzero;stroke:none"
         id="path1078"
         inkscape:connector-curvature="0" /></g></g></svg>